<svg width="28" height="24" viewBox="0 0 28 24" fill="none" xmlns="http://www.w3.org/2000/svg">
<rect width="28" height="24" rx="12" fill="#FFD928"/>
<path d="M9.49505 16.5L9.49505 8.72825H8.50466L8.80115 7.66846H10.5548L10.5548 16.5H9.49505ZM15.3393 16.664C14.8137 16.664 14.3426 16.5463 13.9263 16.3108C13.51 16.071 13.1525 15.7409 12.8539 15.3204C12.5553 14.8998 12.3282 14.4141 12.1726 13.8632C12.017 13.308 11.9392 12.7151 11.9392 12.0842C11.9392 11.4534 12.017 10.8604 12.1726 10.3053C12.3282 9.75018 12.5553 9.26445 12.8539 8.84811C13.1525 8.42756 13.51 8.09953 13.9263 7.86402C14.3426 7.62431 14.8137 7.50445 15.3393 7.50445C15.8608 7.50445 16.3297 7.62431 16.7461 7.86402C17.1666 8.09953 17.522 8.42756 17.8122 8.84811C18.1066 9.26445 18.3315 9.75018 18.4872 10.3053C18.647 10.8604 18.7269 11.4534 18.7269 12.0842C18.7269 12.7151 18.647 13.308 18.4872 13.8632C18.3315 14.4141 18.1066 14.8998 17.8122 15.3204C17.522 15.7409 17.1666 16.071 16.7461 16.3108C16.3297 16.5463 15.8608 16.664 15.3393 16.664ZM15.3393 15.6042C15.865 15.6042 16.3045 15.4423 16.6578 15.1185C17.0152 14.7905 17.2823 14.3594 17.4589 13.8253C17.6355 13.2912 17.7239 12.7109 17.7239 12.0842C17.7239 11.424 17.6313 10.8289 17.4463 10.299C17.2655 9.7649 16.9963 9.34225 16.6388 9.03104C16.2856 8.71984 15.8524 8.56424 15.3393 8.56424C14.9356 8.56424 14.5824 8.65886 14.2796 8.84811C13.981 9.03735 13.7328 9.29599 13.5352 9.62402C13.3375 9.95205 13.1882 10.3284 13.0873 10.7532C12.9906 11.1737 12.9422 11.6174 12.9422 12.0842C12.9422 12.7109 13.0326 13.2933 13.2135 13.8316C13.3943 14.3657 13.6613 14.7947 14.0146 15.1185C14.3721 15.4423 14.8137 15.6042 15.3393 15.6042Z" fill="black"/>
</svg>
