<svg width="108" height="108" viewBox="0 0 108 108" fill="none" xmlns="http://www.w3.org/2000/svg">
<circle cx="54" cy="54" r="50" stroke="#272727" stroke-width="8"/>
<path d="M54 4C64.559 4 74.8469 7.34275 83.3893 13.5492C91.9316 19.7556 98.2899 28.507 101.553 38.5492" stroke="#6E56E0" stroke-width="8" stroke-linecap="round"/>
<path d="M26.6355 65V61.73C27.2855 61.24 28.0555 60.635 28.9455 59.915C29.8355 59.185 30.7505 58.4 31.6905 57.56C32.6305 56.71 33.5005 55.86 34.3005 55.01C35.1005 54.16 35.7505 53.35 36.2505 52.58C36.7605 51.81 37.0155 51.15 37.0155 50.6C37.0155 49.99 36.8655 49.435 36.5655 48.935C36.2655 48.425 35.8655 48.02 35.3655 47.72C34.8755 47.42 34.3255 47.27 33.7155 47.27C33.1055 47.27 32.5505 47.42 32.0505 47.72C31.5505 48.02 31.1505 48.425 30.8505 48.935C30.5505 49.435 30.4005 49.99 30.4005 50.6H26.7405C26.7405 49.28 27.0605 48.095 27.7005 47.045C28.3405 45.985 29.1855 45.15 30.2355 44.54C31.2955 43.92 32.4555 43.61 33.7155 43.61C34.9955 43.61 36.1605 43.925 37.2105 44.555C38.2605 45.175 39.1005 46.015 39.7305 47.075C40.3605 48.135 40.6755 49.31 40.6755 50.6C40.6755 51.28 40.5505 51.965 40.3005 52.655C40.0505 53.345 39.7005 54.04 39.2505 54.74C38.8005 55.44 38.2705 56.15 37.6605 56.87C37.0505 57.58 36.3755 58.31 35.6355 59.06C34.9055 59.8 34.1355 60.56 33.3255 61.34H40.7805V65H26.6355ZM50.8875 65.39C49.6675 65.39 48.5575 65.11 47.5575 64.55C46.5575 63.98 45.6925 63.195 44.9625 62.195C44.2425 61.195 43.6875 60.04 43.2975 58.73C42.9075 57.41 42.7125 56 42.7125 54.5C42.7125 53 42.9075 51.595 43.2975 50.285C43.6875 48.965 44.2425 47.805 44.9625 46.805C45.6925 45.805 46.5575 45.025 47.5575 44.465C48.5575 43.895 49.6675 43.61 50.8875 43.61C52.1075 43.61 53.2175 43.895 54.2175 44.465C55.2175 45.025 56.0725 45.805 56.7825 46.805C57.5025 47.805 58.0575 48.965 58.4475 50.285C58.8475 51.595 59.0475 53 59.0475 54.5C59.0475 56 58.8475 57.41 58.4475 58.73C58.0575 60.04 57.5025 61.195 56.7825 62.195C56.0725 63.195 55.2175 63.98 54.2175 64.55C53.2175 65.11 52.1075 65.39 50.8875 65.39ZM50.8875 61.73C51.9575 61.73 52.8425 61.39 53.5425 60.71C54.2425 60.03 54.7625 59.14 55.1025 58.04C55.4425 56.94 55.6125 55.76 55.6125 54.5C55.6125 53.17 55.4325 51.96 55.0725 50.87C54.7125 49.77 54.1825 48.895 53.4825 48.245C52.7825 47.595 51.9175 47.27 50.8875 47.27C50.0775 47.27 49.3725 47.47 48.7725 47.87C48.1825 48.26 47.6925 48.795 47.3025 49.475C46.9125 50.155 46.6225 50.93 46.4325 51.8C46.2425 52.66 46.1475 53.56 46.1475 54.5C46.1475 55.75 46.3175 56.93 46.6575 58.04C47.0075 59.14 47.5325 60.03 48.2325 60.71C48.9425 61.39 49.8275 61.73 50.8875 61.73ZM63.0823 65L75.2023 44H79.4323L67.3123 65H63.0823ZM65.6623 53.105C64.8423 53.105 64.0873 52.91 63.3973 52.52C62.7173 52.12 62.1723 51.58 61.7623 50.9C61.3523 50.22 61.1473 49.46 61.1473 48.62C61.1473 47.76 61.3523 46.99 61.7623 46.31C62.1823 45.63 62.7323 45.095 63.4123 44.705C64.1023 44.315 64.8523 44.12 65.6623 44.12C66.4823 44.12 67.2323 44.32 67.9123 44.72C68.5923 45.12 69.1323 45.66 69.5323 46.34C69.9423 47.02 70.1473 47.78 70.1473 48.62C70.1473 49.47 69.9373 50.235 69.5173 50.915C69.1073 51.595 68.5623 52.13 67.8823 52.52C67.2023 52.91 66.4623 53.105 65.6623 53.105ZM65.6623 50.6C66.2023 50.6 66.6673 50.41 67.0573 50.03C67.4473 49.64 67.6423 49.17 67.6423 48.62C67.6423 48.06 67.4473 47.59 67.0573 47.21C66.6673 46.83 66.2023 46.64 65.6623 46.64C65.1123 46.64 64.6373 46.83 64.2373 47.21C63.8473 47.59 63.6523 48.06 63.6523 48.62C63.6523 49.17 63.8473 49.64 64.2373 50.03C64.6373 50.41 65.1123 50.6 65.6623 50.6ZM76.8523 64.895C76.0223 64.895 75.2673 64.69 74.5873 64.28C73.9073 63.86 73.3673 63.31 72.9673 62.63C72.5673 61.94 72.3673 61.2 72.3673 60.41C72.3673 59.55 72.5723 58.78 72.9823 58.1C73.4023 57.42 73.9523 56.885 74.6323 56.495C75.3223 56.095 76.0623 55.895 76.8523 55.895C77.7123 55.895 78.4823 56.105 79.1623 56.525C79.8423 56.945 80.3773 57.5 80.7673 58.19C81.1673 58.87 81.3673 59.61 81.3673 60.41C81.3673 61.23 81.1623 61.98 80.7523 62.66C80.3523 63.34 79.8073 63.885 79.1173 64.295C78.4373 64.695 77.6823 64.895 76.8523 64.895ZM76.8523 62.39C77.4123 62.39 77.8873 62.195 78.2773 61.805C78.6673 61.415 78.8623 60.95 78.8623 60.41C78.8623 59.85 78.6673 59.375 78.2773 58.985C77.8873 58.595 77.4123 58.4 76.8523 58.4C76.3123 58.4 75.8473 58.595 75.4573 58.985C75.0673 59.375 74.8723 59.85 74.8723 60.41C74.8723 60.95 75.0673 61.415 75.4573 61.805C75.8473 62.195 76.3123 62.39 76.8523 62.39Z" fill="white"/>
</svg>
