<svg width="108" height="108" viewBox="0 0 108 108" fill="none" xmlns="http://www.w3.org/2000/svg">
<circle cx="54" cy="54" r="50" stroke="#272727" stroke-width="8"/>
<path d="M54 4C60.5661 4 67.0679 5.29329 73.1342 7.80602C79.2005 10.3188 84.7124 14.0017 89.3553 18.6447C93.9983 23.2876 97.6812 28.7996 100.194 34.8658C102.707 40.9321 104 47.4339 104 54C104 60.5661 102.707 67.0679 100.194 73.1342C97.6812 79.2005 93.9983 84.7124 89.3553 89.3553C84.7124 93.9983 79.2004 97.6812 73.1342 100.194C67.0679 102.707 60.5661 104 54 104" stroke="#6E56E0" stroke-width="8" stroke-linecap="round"/>
<path d="M33.7148 65.39C32.3648 65.39 31.1448 65.065 30.0548 64.415C28.9648 63.755 28.0998 62.88 27.4598 61.79C26.8298 60.7 26.5148 59.505 26.5148 58.205H30.1748C30.1748 58.855 30.3348 59.45 30.6548 59.99C30.9748 60.52 31.3998 60.945 31.9298 61.265C32.4698 61.575 33.0648 61.73 33.7148 61.73C34.3648 61.73 34.9548 61.575 35.4848 61.265C36.0148 60.945 36.4398 60.52 36.7598 59.99C37.0798 59.45 37.2398 58.855 37.2398 58.205C37.2398 57.555 37.0998 56.96 36.8198 56.42C36.5498 55.87 36.1048 55.435 35.4848 55.115C34.8748 54.785 34.0648 54.62 33.0548 54.62H27.6548L29.8748 44H40.1948V47.66H32.8448L32.1698 50.96L33.6548 50.975C35.0748 51.025 36.3298 51.37 37.4198 52.01C38.5098 52.65 39.3598 53.51 39.9698 54.59C40.5898 55.66 40.8998 56.865 40.8998 58.205C40.8998 59.185 40.7148 60.11 40.3448 60.98C39.9748 61.85 39.4598 62.615 38.7998 63.275C38.1398 63.935 37.3748 64.455 36.5048 64.835C35.6448 65.205 34.7148 65.39 33.7148 65.39ZM50.8582 65.39C49.6382 65.39 48.5282 65.11 47.5282 64.55C46.5282 63.98 45.6632 63.195 44.9332 62.195C44.2132 61.195 43.6582 60.04 43.2682 58.73C42.8782 57.41 42.6832 56 42.6832 54.5C42.6832 53 42.8782 51.595 43.2682 50.285C43.6582 48.965 44.2132 47.805 44.9332 46.805C45.6632 45.805 46.5282 45.025 47.5282 44.465C48.5282 43.895 49.6382 43.61 50.8582 43.61C52.0782 43.61 53.1882 43.895 54.1882 44.465C55.1882 45.025 56.0432 45.805 56.7532 46.805C57.4732 47.805 58.0282 48.965 58.4182 50.285C58.8182 51.595 59.0182 53 59.0182 54.5C59.0182 56 58.8182 57.41 58.4182 58.73C58.0282 60.04 57.4732 61.195 56.7532 62.195C56.0432 63.195 55.1882 63.98 54.1882 64.55C53.1882 65.11 52.0782 65.39 50.8582 65.39ZM50.8582 61.73C51.9282 61.73 52.8132 61.39 53.5132 60.71C54.2132 60.03 54.7332 59.14 55.0732 58.04C55.4132 56.94 55.5832 55.76 55.5832 54.5C55.5832 53.17 55.4032 51.96 55.0432 50.87C54.6832 49.77 54.1532 48.895 53.4532 48.245C52.7532 47.595 51.8882 47.27 50.8582 47.27C50.0482 47.27 49.3432 47.47 48.7432 47.87C48.1532 48.26 47.6632 48.795 47.2732 49.475C46.8832 50.155 46.5932 50.93 46.4032 51.8C46.2132 52.66 46.1182 53.56 46.1182 54.5C46.1182 55.75 46.2882 56.93 46.6282 58.04C46.9782 59.14 47.5032 60.03 48.2032 60.71C48.9132 61.39 49.7982 61.73 50.8582 61.73ZM63.053 65L75.173 44H79.403L67.283 65H63.053ZM65.633 53.105C64.813 53.105 64.058 52.91 63.368 52.52C62.688 52.12 62.143 51.58 61.733 50.9C61.323 50.22 61.118 49.46 61.118 48.62C61.118 47.76 61.323 46.99 61.733 46.31C62.153 45.63 62.703 45.095 63.383 44.705C64.073 44.315 64.823 44.12 65.633 44.12C66.453 44.12 67.203 44.32 67.883 44.72C68.563 45.12 69.103 45.66 69.503 46.34C69.913 47.02 70.118 47.78 70.118 48.62C70.118 49.47 69.908 50.235 69.488 50.915C69.078 51.595 68.533 52.13 67.853 52.52C67.173 52.91 66.433 53.105 65.633 53.105ZM65.633 50.6C66.173 50.6 66.638 50.41 67.028 50.03C67.418 49.64 67.613 49.17 67.613 48.62C67.613 48.06 67.418 47.59 67.028 47.21C66.638 46.83 66.173 46.64 65.633 46.64C65.083 46.64 64.608 46.83 64.208 47.21C63.818 47.59 63.623 48.06 63.623 48.62C63.623 49.17 63.818 49.64 64.208 50.03C64.608 50.41 65.083 50.6 65.633 50.6ZM76.823 64.895C75.993 64.895 75.238 64.69 74.558 64.28C73.878 63.86 73.338 63.31 72.938 62.63C72.538 61.94 72.338 61.2 72.338 60.41C72.338 59.55 72.543 58.78 72.953 58.1C73.373 57.42 73.923 56.885 74.603 56.495C75.293 56.095 76.033 55.895 76.823 55.895C77.683 55.895 78.453 56.105 79.133 56.525C79.813 56.945 80.348 57.5 80.738 58.19C81.138 58.87 81.338 59.61 81.338 60.41C81.338 61.23 81.133 61.98 80.723 62.66C80.323 63.34 79.778 63.885 79.088 64.295C78.408 64.695 77.653 64.895 76.823 64.895ZM76.823 62.39C77.383 62.39 77.858 62.195 78.248 61.805C78.638 61.415 78.833 60.95 78.833 60.41C78.833 59.85 78.638 59.375 78.248 58.985C77.858 58.595 77.383 58.4 76.823 58.4C76.283 58.4 75.818 58.595 75.428 58.985C75.038 59.375 74.843 59.85 74.843 60.41C74.843 60.95 75.038 61.415 75.428 61.805C75.818 62.195 76.283 62.39 76.823 62.39Z" fill="white"/>
</svg>
